<?xml version="1.0" encoding="utf-8"?>
<!-- Generator: Adobe Illustrator 16.2.0, SVG Export Plug-In . SVG Version: 6.00 Build 0)  -->
<!DOCTYPE svg PUBLIC "-//W3C//DTD SVG 1.1//EN" "http://www.w3.org/Graphics/SVG/1.1/DTD/svg11.dtd">
<svg version="1.1" id="Layer_1" xmlns:sketch="http://www.bohemiancoding.com/sketch/ns"
	 xmlns="http://www.w3.org/2000/svg" xmlns:xlink="http://www.w3.org/1999/xlink" x="0px" y="0px" width="84px" height="84px"
	 viewBox="0 0 84 84" enable-background="new 0 0 84 84" xml:space="preserve">
<g id="Rectangle-290">
	<g sketch:type="MSShapeGroup">
		<path id="path-1" fill="#EEEEEE" stroke="#FFFFFF" stroke-width="4" d="M41,1h2c22.092,0,40,17.909,40,40v2
			c0,22.092-17.908,40-40,40h-2C18.909,83,1,65.092,1,43v-2C1,18.909,18.909,1,41,1z"/>
	</g>
	<g>
		<path id="path-1_1_" fill="none" stroke="#F2EDED" d="M41,1h2c22.092,0,40,17.909,40,40v2c0,22.092-17.908,40-40,40h-2
			C18.909,83,1,65.092,1,43v-2C1,18.909,18.909,1,41,1z"/>
	</g>
</g>
<g>
	<g>
		<g>
			<g>
				<g>
					<rect x="40.833" y="17.492" fill="#005EB8" width="2.334" height="8.923"/>
				</g>
				<g>
					<g>
						<polygon fill="#005EB8" points="36.897,59.178 47.102,59.178 42,54.076 						"/>
					</g>
				</g>
			</g>
		</g>
		<g>
			<g>
				<g>
					<rect x="40.832" y="57.583" fill="#005EB8" width="2.334" height="8.925"/>
				</g>
				<g>
					<g>
						<polygon fill="#005EB8" points="47.101,24.824 36.896,24.824 41.999,29.923 						"/>
					</g>
				</g>
			</g>
		</g>
		<g>
			<g>
				<g>
					<rect x="57.582" y="40.833" fill="#005EB8" width="8.926" height="2.334"/>
				</g>
				<g>
					<g>
						<polygon fill="#005EB8" points="24.685,36.798 24.685,47.001 29.786,41.9 						"/>
					</g>
				</g>
			</g>
		</g>
		<g>
			<g>
				<g>
					<rect x="17.492" y="40.831" fill="#005EB8" width="8.924" height="2.334"/>
				</g>
				<g>
					<g>
						<polygon fill="#005EB8" points="59.511,47.1 59.511,36.896 54.408,41.998 						"/>
					</g>
				</g>
			</g>
		</g>
		<g>
			<g>
				<g>
					
						<rect x="55.007" y="23.361" transform="matrix(0.707 0.7072 -0.7072 0.707 36.1364 -31.5743)" fill="#005EB8" width="2.333" height="8.925"/>
				</g>
				<g>
					<g>
						<polygon fill="#005EB8" points="26.118,50.67 33.333,57.884 33.332,50.67 						"/>
					</g>
				</g>
			</g>
		</g>
		<g>
			<g>
				<g>
					
						<rect x="26.659" y="51.71" transform="matrix(0.7074 0.7068 -0.7068 0.7074 47.8433 -3.2318)" fill="#005EB8" width="2.332" height="8.924"/>
				</g>
				<g>
					<g>
						<polygon fill="#005EB8" points="57.918,33.293 50.702,26.078 50.704,33.293 						"/>
					</g>
				</g>
			</g>
		</g>
		<g>
			<g>
				<g>
					
						<rect x="51.711" y="55.008" transform="matrix(0.7071 0.7071 -0.7071 0.7071 56.1745 -23.2677)" fill="#005EB8" width="8.926" height="2.333"/>
				</g>
				<g>
					<g>
						<polygon fill="#005EB8" points="33.394,26.178 26.178,33.393 33.392,33.393 						"/>
					</g>
				</g>
			</g>
		</g>
		<g>
			<g>
				<g>
					
						<rect x="23.364" y="26.658" transform="matrix(0.7071 0.7071 -0.7071 0.7071 27.8233 -11.5267)" fill="#005EB8" width="8.925" height="2.333"/>
				</g>
				<g>
					<g>
						<polygon fill="#005EB8" points="50.802,58.016 58.016,50.801 50.802,50.801 						"/>
					</g>
				</g>
			</g>
		</g>
	</g>
	<g>
		<g>
			<g>
				<path fill="#005EB8" d="M41.476,41.022c0,0.275-0.225,0.5-0.5,0.5h-2.133c-0.275,0-0.5-0.225-0.5-0.5v-2.134
					c0-0.275,0.225-0.5,0.5-0.5h2.133c0.275,0,0.5,0.225,0.5,0.5V41.022z"/>
			</g>
		</g>
	</g>
	<g>
		<g>
			<g>
				<path fill="#005EB8" d="M45.656,41.022c0,0.275-0.225,0.5-0.5,0.5h-2.135c-0.275,0-0.5-0.225-0.5-0.5v-2.134
					c0-0.275,0.225-0.5,0.5-0.5h2.135c0.275,0,0.5,0.225,0.5,0.5V41.022z"/>
			</g>
		</g>
	</g>
	<g>
		<g>
			<g>
				<path fill="#005EB8" d="M49.835,41.022c0,0.275-0.225,0.5-0.5,0.5h-2.134c-0.275,0-0.5-0.225-0.5-0.5v-2.134
					c0-0.275,0.225-0.5,0.5-0.5h2.134c0.275,0,0.5,0.225,0.5,0.5V41.022z"/>
			</g>
		</g>
	</g>
	<g>
		<g>
			<g>
				<path fill="#005EB8" d="M41.476,45.113c0,0.275-0.225,0.5-0.5,0.5h-2.133c-0.275,0-0.5-0.225-0.5-0.5V42.98
					c0-0.275,0.225-0.5,0.5-0.5h2.133c0.275,0,0.5,0.225,0.5,0.5V45.113z"/>
			</g>
		</g>
	</g>
	<g>
		<g>
			<g>
				<path fill="#005EB8" d="M45.656,45.113c0,0.275-0.225,0.5-0.5,0.5h-2.135c-0.275,0-0.5-0.225-0.5-0.5V42.98
					c0-0.275,0.225-0.5,0.5-0.5h2.135c0.275,0,0.5,0.225,0.5,0.5V45.113z"/>
			</g>
		</g>
	</g>
	<g>
		<g>
			<g>
				<path fill="#005EB8" d="M49.835,45.113c0,0.275-0.225,0.5-0.5,0.5h-2.134c-0.275,0-0.5-0.225-0.5-0.5V42.98
					c0-0.275,0.225-0.5,0.5-0.5h2.134c0.275,0,0.5,0.225,0.5,0.5V45.113z"/>
			</g>
		</g>
	</g>
	<g>
		<g>
			<g>
				<path fill="#005EB8" d="M41.476,49.205c0,0.275-0.225,0.5-0.5,0.5h-2.133c-0.275,0-0.5-0.225-0.5-0.5V47.07
					c0-0.275,0.225-0.5,0.5-0.5h2.133c0.275,0,0.5,0.225,0.5,0.5V49.205z"/>
			</g>
		</g>
	</g>
	<g>
		<g>
			<g>
				<path fill="#005EB8" d="M37.298,41.022c0,0.275-0.225,0.5-0.5,0.5h-2.134c-0.275,0-0.5-0.225-0.5-0.5v-2.134
					c0-0.275,0.225-0.5,0.5-0.5h2.134c0.275,0,0.5,0.225,0.5,0.5V41.022z"/>
			</g>
		</g>
	</g>
	<g>
		<g>
			<g>
				<path fill="#005EB8" d="M41.476,37.105c0,0.275-0.225,0.5-0.5,0.5h-2.133c-0.275,0-0.5-0.225-0.5-0.5v-2.133
					c0-0.275,0.225-0.5,0.5-0.5h2.133c0.275,0,0.5,0.225,0.5,0.5V37.105z"/>
			</g>
		</g>
	</g>
	<g>
		<g>
			<g>
				<path fill="#005EB8" d="M45.656,37.105c0,0.275-0.225,0.5-0.5,0.5h-2.135c-0.275,0-0.5-0.225-0.5-0.5v-2.133
					c0-0.275,0.225-0.5,0.5-0.5h2.135c0.275,0,0.5,0.225,0.5,0.5V37.105z"/>
			</g>
		</g>
	</g>
	<g>
		<g>
			<g>
				<path fill="#005EB8" d="M49.835,37.105c0,0.275-0.225,0.5-0.5,0.5h-2.134c-0.275,0-0.5-0.225-0.5-0.5v-2.133
					c0-0.275,0.225-0.5,0.5-0.5h2.134c0.275,0,0.5,0.225,0.5,0.5V37.105z"/>
			</g>
		</g>
	</g>
	<g>
		<g>
			<g>
				<path fill="#005EB8" d="M37.298,37.105c0,0.275-0.225,0.5-0.5,0.5h-2.134c-0.275,0-0.5-0.225-0.5-0.5v-2.133
					c0-0.275,0.225-0.5,0.5-0.5h2.134c0.275,0,0.5,0.225,0.5,0.5V37.105z"/>
			</g>
		</g>
	</g>
	<g>
		<g>
			<g>
				<path fill="#005EB8" d="M37.298,45.113c0,0.275-0.225,0.5-0.5,0.5h-2.134c-0.275,0-0.5-0.225-0.5-0.5V42.98
					c0-0.275,0.225-0.5,0.5-0.5h2.134c0.275,0,0.5,0.225,0.5,0.5V45.113z"/>
			</g>
		</g>
	</g>
	<g>
		<g>
			<g>
				<path fill="#005EB8" d="M37.298,49.205c0,0.275-0.225,0.5-0.5,0.5h-2.134c-0.275,0-0.5-0.225-0.5-0.5V47.07
					c0-0.275,0.225-0.5,0.5-0.5h2.134c0.275,0,0.5,0.225,0.5,0.5V49.205z"/>
			</g>
		</g>
	</g>
	<g>
		<g>
			<g>
				<path fill="#005EB8" d="M45.656,49.205c0,0.275-0.225,0.5-0.5,0.5h-2.135c-0.275,0-0.5-0.225-0.5-0.5V47.07
					c0-0.275,0.225-0.5,0.5-0.5h2.135c0.275,0,0.5,0.225,0.5,0.5V49.205z"/>
			</g>
		</g>
	</g>
</g>
</svg>
