<?xml version="1.0" encoding="utf-8"?>
<!-- Generator: Adobe Illustrator 16.2.0, SVG Export Plug-In . SVG Version: 6.00 Build 0)  -->
<!DOCTYPE svg PUBLIC "-//W3C//DTD SVG 1.1//EN" "http://www.w3.org/Graphics/SVG/1.1/DTD/svg11.dtd">
<svg version="1.1" id="Layer_1" xmlns:sketch="http://www.bohemiancoding.com/sketch/ns"
	 xmlns="http://www.w3.org/2000/svg" xmlns:xlink="http://www.w3.org/1999/xlink" x="0px" y="0px" width="84px" height="84px"
	 viewBox="0 0 84 84" enable-background="new 0 0 84 84" xml:space="preserve">
<g sketch:type="MSShapeGroup">
	<g id="path-1">
		<path fill="#EEEEEE" d="M41.007,81.75c-21.37,0-38.756-17.386-38.756-38.756v-1.988c0-21.37,17.386-38.756,38.756-38.756h1.988
			c21.37,0,38.756,17.386,38.756,38.756v1.988c0,21.37-17.386,38.756-38.756,38.756H41.007z"/>
		<path fill="#FFFFFF" d="M42.995,3.25c20.817,0,37.756,16.938,37.756,37.756v1.988c0,20.818-16.938,37.756-37.756,37.756h-1.988
			c-20.819,0-37.756-16.938-37.756-37.756v-1.988c0-20.819,16.938-37.756,37.756-37.756H42.995 M42.995,1.25h-1.988
			c-21.956,0-39.756,17.8-39.756,39.756v1.988c0,21.957,17.8,39.756,39.756,39.756h1.988c21.957,0,39.756-17.799,39.756-39.756
			v-1.988C82.751,19.05,64.952,1.25,42.995,1.25L42.995,1.25z"/>
	</g>
</g>
<g>
	<path id="path-1_1_" fill="none" stroke="#F2EDED" d="M41.007,1.25h1.988c21.957,0,39.756,17.8,39.756,39.756v1.988
		c0,21.957-17.799,39.756-39.756,39.756h-1.988c-21.956,0-39.756-17.799-39.756-39.756v-1.988C1.251,19.05,19.051,1.25,41.007,1.25z
		"/>
</g>
<path fill="#005EB8" stroke="#005EB8" stroke-miterlimit="10" d="M61.542,36.819"/>
<path fill="#005EB8" stroke="#005EB8" stroke-width="0.75" stroke-miterlimit="10" d="M66.314,33.441l-9.842-9.843
	c-0.622-0.624-1.45-0.967-2.332-0.967s-1.71,0.343-2.331,0.967l-2.314,2.313c-0.355,0.355-0.61,0.773-0.77,1.22l-10.822-1.938
	c0,0-0.002,0-0.002,0c-4.865-0.965-9.616,2.197-10.598,7.063l-0.499,2.477c-0.551,2.736,1.225,5.406,3.959,5.958
	c2.733,0.551,5.407-1.225,5.958-3.96l0.305-1.514l4.853,0.424l12.674,12.674l2.295,2.297c0.468,0.465,0.468,1.221,0,1.689
	c-0.462,0.462-1.221,0.462-1.686,0l-6.151-6.155c-0.43-0.429-1.127-0.429-1.554,0c-0.427,0.428-0.427,1.123,0,1.551l6.154,6.153
	c0.225,0.227,0.35,0.526,0.35,0.843c0,0.319-0.125,0.618-0.35,0.844c-0.467,0.468-1.224,0.468-1.687,0l-6.154-6.152
	c-0.427-0.429-1.125-0.429-1.551,0c-0.43,0.427-0.43,1.125,0,1.554l6.152,6.153c0.466,0.463,0.466,1.218,0,1.686
	c-0.226,0.227-0.524,0.351-0.844,0.351c-0.318,0-0.619-0.124-0.845-0.351l-6.151-6.153c-0.428-0.43-1.124-0.43-1.552,0
	c-0.429,0.432-0.429,1.124,0,1.553l6.153,6.152c0.464,0.464,0.464,1.22,0,1.688c-0.464,0.465-1.221,0.465-1.688,0L20.804,37.373
	c-0.43-0.429-1.125-0.429-1.553,0c-0.428,0.428-0.428,1.123,0,1.551l6.003,6.004L23.53,46.65c-0.565,0.564-0.875,1.316-0.875,2.114
	c0,0.8,0.31,1.552,0.875,2.117l0.562,0.561c0.494,0.493,1.13,0.793,1.816,0.861c0.068,0.686,0.367,1.323,0.86,1.816l0.564,0.563
	c0.506,0.506,1.151,0.791,1.813,0.855c0.068,0.688,0.368,1.324,0.862,1.819l0.563,0.563c0.494,0.494,1.129,0.791,1.814,0.858
	c0.068,0.688,0.368,1.324,0.862,1.818l0.563,0.563c0.582,0.585,1.348,0.873,2.114,0.873s1.529-0.288,2.114-0.873l1.724-1.725
	l4.132,4.132c0.641,0.641,1.492,0.994,2.396,0.994c0.903,0,1.755-0.354,2.394-0.994c0.607-0.606,0.951-1.404,0.985-2.251
	c0.854-0.036,1.649-0.383,2.256-0.987c0.624-0.625,0.949-1.434,0.982-2.255c0.82-0.033,1.629-0.36,2.257-0.982
	c0.622-0.627,0.949-1.435,0.982-2.257c0.82-0.033,1.632-0.358,2.255-0.984c1.321-1.321,1.321-3.471,0-4.793l-1.521-1.518
	l5.564-5.564l3.869-3.87C67.603,36.82,67.603,34.727,66.314,33.441z M26.768,49.893c-0.309,0.309-0.813,0.309-1.124,0l-0.563-0.564
	c-0.309-0.31-0.309-0.815,0-1.123l1.618-1.618l1.687,1.688L26.768,49.893z M30.007,53.132c-0.309,0.308-0.813,0.308-1.124,0
	l-0.562-0.563c-0.312-0.312-0.312-0.816,0-1.126l1.616-1.617l1.687,1.687L30.007,53.132z M33.247,56.37
	c-0.311,0.308-0.815,0.308-1.125,0l-0.563-0.565c-0.15-0.147-0.233-0.35-0.233-0.561c0-0.213,0.083-0.411,0.233-0.561l1.618-1.62
	l1.687,1.689L33.247,56.37z M36.485,59.607c-0.31,0.312-0.814,0.31-1.125,0l-0.562-0.563c-0.311-0.311-0.311-0.814,0-1.124
	l1.617-1.618l1.687,1.688L36.485,59.607z M55.33,45.987L43.15,33.808c-0.184-0.183-0.425-0.295-0.682-0.318l-6.229-0.544
	c-0.032-0.003-0.063-0.004-0.096-0.004c-0.517,0-0.971,0.364-1.075,0.881l-0.498,2.476c-0.312,1.547-1.826,2.553-3.374,2.241
	c-0.749-0.151-1.396-0.586-1.819-1.223c-0.423-0.638-0.573-1.401-0.422-2.151l0.5-2.476c0.743-3.688,4.348-6.084,8.039-5.341
	c0.007,0.002,0.015,0.004,0.023,0.004l10.664,1.91l11.937,11.935L55.33,45.987z M62.105,38.729c-1.39,0-2.521-1.13-2.521-2.522
	c0-1.391,1.131-2.518,2.521-2.518c1.394,0,2.524,1.127,2.524,2.518C64.63,37.599,63.499,38.729,62.105,38.729z"/>
</svg>
